# xmcd
#
# Track frame offsets:
#	150
#	14488
#	26595
#	42147
#	56926
#	73556
#	89715
#	107352
#	123587
#	141744
#	157822
#	172523
#
# Disc length: 2478 seconds
#
# Revision: 1
# Processed by: cddbd v1.5.2PL0 Copyright (c) Steve Scherf et al.
# Submitted via: audiograbber 1.83.01
#
DISCID=9f09ac0c
DTITLE=Craig Sellers - Something Worth Fighting For
DYEAR=2005
DGENRE=Country
TTITLE0=Do These Boots Match My Thong?
TTITLE1=Redneck Saturday Night
TTITLE2=Don't Gotta Work For You
TTITLE3=Lee Me See You Ride
TTITLE4=Something Worth Fighting For
TTITLE5=Learn About Life
TTITLE6=The Little Things
TTITLE7=Congratulations
TTITLE8=Old Green Tackle Box
TTITLE9=Almost Over You
TTITLE10=Jose Can You See
TTITLE11=Thank God You Ain't Puttin' Up Hay
EXTD=
EXTT0=
EXTT1=
EXTT2=
EXTT3=
EXTT4=
EXTT5=
EXTT6=
EXTT7=
EXTT8=
EXTT9=
EXTT10=
EXTT11=
PLAYORDER=
